Coordinates
version=1
nRows=16
nColumns=40
inDegrees=yes

Units are S.I. units (second, meters, Newtons, ...)
Angles are in degrees.

endheader
time	pelvis_tilt	pelvis_list	pelvis_rotation	pelvis_tx	pelvis_ty	pelvis_tz	hip_flexion_r	hip_adduction_r	hip_rotation_r	knee_angle_r	knee_angle_r_beta	ankle_angle_r	subtalar_angle_r	mtp_angle_r	hip_flexion_l	hip_adduction_l	hip_rotation_l	knee_angle_l	knee_angle_l_beta	ankle_angle_l	subtalar_angle_l	mtp_angle_l	lumbar_extension	lumbar_bending	lumbar_rotation	arm_flex_r	arm_add_r	arm_rot_r	elbow_flex_r	pro_sup_r	wrist_flex_r	wrist_dev_r	arm_flex_l	arm_add_l	arm_rot_l	elbow_flex_l	pro_sup_l	wrist_flex_l	wrist_dev_l
     32.13000000	     -2.56748179	     -4.71044556	      2.17213912	      1.14032000	      0.93098920	      0.49975379	     12.78368707	      2.35905983	    -13.57009396	     17.51741510	     17.51741510	      9.36220087	      0.37404483	     -5.89445263	     29.05138153	    -14.30198288	      0.18970538	     60.05426017	     60.05426017	      9.09525501	    -18.06070402	     11.50135100	    -11.77989781	      7.42470684	      3.22085275	     17.80726551	    -19.25567148	      0.08789813	     54.14053245	     45.61709677	      0.00000000	      0.00000000	      4.48566057	     -8.91069370	     -4.33968792	     36.67021456	     45.39335376	      0.00000000	      0.00000000
     32.14464286	     -2.62137115	     -4.63337359	      2.63366671	      1.13910005	      0.93163329	      0.50057318	     12.13539170	      2.41738796	    -13.78859718	     16.85987422	     16.85987422	      9.44860054	      0.27851170	     -5.88642822	     30.19640093	    -14.28740519	      0.00045768	     57.44884009	     57.44884009	      9.25792766	    -18.30415461	     11.55952394	    -11.80401605	      7.26304733	      2.87827447	     19.57254101	    -19.12948706	     -0.09874559	     56.00098884	     45.56550730	      0.00000000	      0.00000000	      3.20934910	     -8.85334179	     -4.27806394	     35.48309469	     45.38250515	      0.00000000	      0.00000000
     32.15928571	     -2.78738373	     -4.62439950	      3.04181999	      1.13776115	      0.93188126	      0.50142749	     11.82748824	      2.49388335	    -14.02012438	     16.60515149	     16.60515149	      9.62232360	      0.14319982	     -5.91859718	     31.31662253	    -14.33382518	     -0.31437380	     54.57219305	     54.57219305	      9.51319364	    -18.24893138	     11.78811224	    -11.67377027	      7.14106361	      3.26037283	     21.08527781	    -19.56329081	     -0.33505777	     56.90592350	     45.55074098	      0.00000000	      0.00000000	      2.19738049	     -8.61302824	     -4.21961422	     34.91829915	     45.36299607	      0.00000000	      0.00000000
     32.17392857	     -2.71991093	     -4.37361788	      3.50230542	      1.13670349	      0.93274838	      0.50201471	     10.88201461	      2.40850464	    -14.17358021	     15.65840347	     15.65840347	      9.67317554	      0.16955907	     -5.89365345	     31.77318313	    -13.92605942	     -0.61866327	     51.11997776	     51.11997776	      9.44541769	    -18.57095438	     12.06129824	    -11.91317010	      6.79138577	      2.42434171	     22.96698120	    -18.97597019	     -0.44460871	     59.51708902	     45.47182845	      0.00000000	      0.00000000	      0.91029734	     -8.70140949	     -4.09389061	     33.34717197	     45.33904214	      0.00000000	      0.00000000
     32.18857143	     -2.78652658	     -4.33181463	      3.93448638	      1.13549787	      0.93305405	      0.50247564	     10.31765816	      2.47176335	    -14.42918412	     15.11287484	     15.11287484	      9.74378271	      0.15131571	     -6.04195732	     32.33326032	    -13.69095980	     -0.88171310	     47.58235370	     47.58235370	      9.40585641	    -18.50479787	     12.24661749	    -11.96467350	      6.71136401	      2.25404228	     24.50959836	    -19.03958797	     -0.58798928	     61.75037177	     45.40706504	      0.00000000	      0.00000000	     -0.06067800	     -8.53766500	     -3.99285543	     32.08429118	     45.32345060	      0.00000000	      0.00000000
     32.20321429	     -2.87867515	     -4.28614577	      4.32619280	      1.13428360	      0.93318024	      0.50280712	      9.84753875	      2.51178483	    -14.66298465	     14.68727654	     14.68727654	      9.85713685	      0.11163076	     -6.20920353	     32.75163778	    -13.35026378	     -1.08663922	     43.87271930	     43.87271930	      9.31763252	    -18.33234452	     12.46103726	    -11.98849027	      6.57957810	      2.26182104	     25.93241807	    -19.18509558	     -0.77833014	     63.75638951	     45.35224050	      0.00000000	      0.00000000	     -0.90497356	     -8.35522698	     -3.90120245	     31.06814287	     45.30876681	      0.00000000	      0.00000000
     32.21785714	     -2.98020804	     -4.32162877	      4.72825445	      1.13310653	      0.93310839	      0.50284283	      9.36731851	      2.60128737	    -15.07161031	     14.18951622	     14.18951622	      9.72384068	      0.27365230	     -7.06055012	     33.00602279	    -13.00462877	     -1.22268576	     39.93939537	     39.93939537	      8.57035746	    -18.07202420	     10.97978563	    -12.11040412	      6.66029139	      2.96086462	     25.93380239	    -20.11322339	     -1.35075064	     68.66639032	     45.21270692	      0.00000000	      0.00000000	     -0.86670682	     -7.98969845	     -3.68538436	     28.92062627	     45.33559480	      0.00000000	      0.00000000
     32.23250000	     -3.07605154	     -4.26466452	      5.05141619	      1.13191642	      0.93304594	      0.50271146	      9.00994194	      2.58345391	    -15.19655121	     13.96509232	     13.96509232	      9.90773747	      0.13953581	     -7.13317795	     33.14635053	    -12.47565937	     -1.23563671	     36.10297962	     36.10297962	      8.41802200	    -17.48714658	     11.35885396	    -12.14641979	      6.56590178	      2.98735073	     27.46839109	    -20.09822097	     -1.76994323	     69.95270564	     45.19316001	      0.00000000	      0.00000000	     -1.68913721	     -7.83959871	     -3.58892437	     28.41618023	     45.31605117	      0.00000000	      0.00000000
     32.24714286	     -3.19221041	     -4.32992875	      5.40667925	      1.13076265	      0.93273725	      0.50234639	      8.65574360	      2.66370107	    -15.53612640	     13.69202832	     13.69202832	     10.05591571	      0.28976272	     -7.30570834	     33.28156903	    -12.00070786	     -1.04743506	     32.38633820	     32.38633820	      7.92603186	    -16.70125503	     10.91106289	    -12.20263812	      6.65159015	      2.87825906	     28.70197044	    -19.92683869	     -2.41042159	     72.42271728	     45.14446208	      0.00000000	      0.00000000	     -2.54727319	     -7.66074280	     -3.40103451	     28.02675340	     45.29404755	      0.00000000	      0.00000000
     32.26178571	     -3.30831014	     -4.30577349	      5.68075890	      1.12969238	      0.93246528	      0.50180565	      8.37486326	      2.63181076	    -15.68809331	     13.58259091	     13.58259091	     10.28207001	      0.24162581	     -7.40667353	     33.31438938	    -11.51135734	     -1.06162276	     28.89370166	     28.89370166	      7.65149261	    -15.27097747	     11.16901521	    -12.21802255	      6.63575710	      3.00714677	     29.93117697	    -19.95604271	     -2.71437682	     73.75301756	     45.11866481	      0.00000000	      0.00000000	     -3.28800360	     -7.50161874	     -3.31649708	     27.80875814	     45.27542701	      0.00000000	      0.00000000
     32.27642857	     -3.39420917	     -4.38646786	      5.92549133	      1.12880960	      0.93204846	      0.50121664	      8.05166538	      2.71128786	    -15.90870151	     13.46027078	     13.46027078	     10.51203277	      0.32457887	     -7.49851312	     33.33813223	    -11.13385130	     -0.92530354	     25.82785055	     25.82785055	      7.45262128	    -13.66864384	     11.26126733	    -12.23317778	      6.66729358	      2.98701172	     31.12885145	    -19.81106356	     -3.03850464	     75.48630181	     45.08071598	      0.00000000	      0.00000000	     -4.09320933	     -7.34129477	     -3.22742225	     27.72021246	     45.25503509	      0.00000000	      0.00000000
     32.29107143	     -3.49235117	     -4.45505900	      6.12971956	      1.12801641	      0.93163023	      0.50037711	      7.73600456	      2.75883311	    -16.09689540	     13.34382155	     13.34382155	     10.75598947	      0.44974187	     -7.56626827	     33.37906600	    -10.78127859	     -0.86599692	     23.23493794	     23.23493794	      7.16833180	    -11.93166906	     11.38066835	    -12.24286024	      6.74063794	      3.03101376	     32.18750346	    -19.64809947	     -3.34312312	     77.15387001	     45.04397859	      0.00000000	      0.00000000	     -4.84394290	     -7.16351736	     -3.15218987	     27.78145919	     45.23654730	      0.00000000	      0.00000000
     32.30571429	     -3.51043961	     -4.57232577	      6.31584894	      1.12752942	      0.93120581	      0.49938738	      7.27885979	      2.85517831	    -16.36224285	     13.17242344	     13.17242344	     11.07613497	      0.85032339	     -7.54153434	     33.37748764	    -10.55520686	     -0.94795680	     21.23678794	     21.23678794	      6.87503422	    -10.05815117	     11.08100944	    -12.29163555	      6.92287021	      3.14182618	     32.91815074	    -19.38906889	     -3.89618408	     79.77169128	     44.98921836	      0.00000000	      0.00000000	     -5.68977532	     -7.01933206	     -3.01830201	     28.46766305	     45.21572805	      0.00000000	      0.00000000
     32.32035714	     -3.68706532	     -4.77388450	      6.42033368	      1.12696124	      0.93053167	      0.49841368	      7.10561550	      3.02802075	    -16.46843128	     13.15784352	     13.15784352	     11.30756123	      0.85070989	     -7.59641770	     33.66528047	    -10.38194406	     -0.74789644	     19.94875234	     19.94875234	      6.41236209	     -8.96469370	     11.32438382	    -12.17549596	      7.04940721	      3.40020955	     33.89138230	    -19.56069416	     -4.12949105	     80.41676191	     44.98179481	      0.00000000	      0.00000000	     -6.25732229	     -6.82123302	     -2.97214635	     28.40870646	     45.20167912	      0.00000000	      0.00000000
     32.33500000	     -3.65665163	     -4.74018127	      6.45314387	      1.12694413	      0.93031938	      0.49728803	      6.54341802	      2.98715212	    -16.51102397	     12.97624320	     12.97624320	     11.63736087	      1.10318460	     -7.54138131	     33.43308918	    -10.12097449	     -1.02967087	     18.88229484	     18.88229484	      6.00889451	     -7.71385000	     11.28060306	    -12.22791227	      6.96120479	      3.37340379	     34.58600200	    -19.01925689	     -4.29737790	     81.82352928	     44.94837252	      0.00000000	      0.00000000	     -6.93115175	     -6.72953613	     -2.90285372	     28.59105912	     45.18577484	      0.00000000	      0.00000000
     32.34964286	     -3.69603447	     -4.87205547	      6.44885027	      1.12708083	      0.92982049	      0.49605678	      6.06850269	      3.10047730	    -16.59600424	     12.79344737	     12.79344737	     11.94617515	      1.43205695	     -7.47016120	     33.38247579	    -10.03581348	     -1.20558265	     18.49678334	     18.49678334	      5.58756346	     -6.97236303	     11.05460954	    -12.15245802	      7.06040504	      3.46447262	     35.29792589	    -18.70291249	     -4.51717732	     83.01101344	     44.92406413	      0.00000000	      0.00000000	     -7.51685467	     -6.58365426	     -2.85354934	     28.84987473	     45.17396206	      0.00000000	      0.00000000
